<?xml version="1.0" encoding="utf-8"?>
<svg xmlns="http://www.w3.org/2000/svg" style="margin: auto; background: none; display: block; shape-rendering: auto;" width="274" height="28" preserveAspectRatio="xMidYMid">
<style type="text/css">
  text {
    text-anchor: middle; font-size: 16px; opacity: 0;
  }
</style>
<g style="transform-origin: 137px 14px; transform: scale(0.2);">
<g transform="translate(137,14)">
  <g transform="translate(0,0)"><g class="path" style="transform: matrix(1, 0, 0, 1, 0, 14.925); opacity: 0.05; transform-origin: -542.63px -3.10073px; animation: 1s linear 0s 1 normal forwards running float-btt-in-ba313382-c000-4509-a30b-853b8a9dab6b;"><path d="M40.23-35.94L31.21 0L17.03 0L2.27-56.25L18.09-56.25L27.42-16.33L35.70-56.25L49.92-56.25L58.98-15.31L69.18-56.25L78.75-56.25L62.38 0L48.16 0L40.23-35.94" fill="#ffffff" stroke="none" stroke-width="none" transform="translate(-583.1399426460266,25.024267354011535)" style="fill: rgb(255, 255, 255);"></path></g><g class="path" style="transform: matrix(1, 0, 0, 1, 0, 14.925); opacity: 0.05; transform-origin: -480.485px 2.36927px; animation: 1s linear 0.0275s 1 normal forwards running float-btt-in-ba313382-c000-4509-a30b-853b8a9dab6b;"><path d="M93.13-21.41L93.13-21.41L93.13-21.41Q95.55-20.86 97.97-20.55L97.97-20.55L97.97-20.55Q100.39-20.23 102.85-20.23L102.85-20.23L102.85-20.23Q105.43-20.23 107.64-20.72L107.64-20.72L107.64-20.72Q109.84-21.21 111.46-22.36L111.46-22.36L111.46-22.36Q113.09-23.52 114.02-25.43L114.02-25.43L114.02-25.43Q114.96-27.34 114.96-30.20L114.96-30.20L114.96-30.20Q114.96-32.50 114.34-34.41L114.34-34.41L114.34-34.41Q113.71-36.33 112.48-37.70L112.48-37.70L112.48-37.70Q111.25-39.06 109.45-39.82L109.45-39.82L109.45-39.82Q107.66-40.59 105.27-40.59L105.27-40.59L105.27-40.59Q103.05-40.59 101.27-39.77L101.27-39.77L101.27-39.77Q99.49-38.95 98.14-37.56L98.14-37.56L98.14-37.56Q96.80-36.17 95.84-34.34L95.84-34.34L95.84-34.34Q94.88-32.50 94.26-30.51L94.26-30.51L94.26-30.51Q93.63-28.52 93.36-26.48L93.36-26.48L93.36-26.48Q93.09-24.45 93.09-22.66L93.09-22.66L93.09-22.66Q93.09-22.34 93.09-22.03L93.09-22.03L93.09-22.03Q93.09-21.72 93.13-21.41zM125.66-30.31L125.66-30.31L125.66-30.31Q125.66-27.54 124.77-25.37L124.77-25.37L124.77-25.37Q123.87-23.20 122.32-21.56L122.32-21.56L122.32-21.56Q120.78-19.92 118.75-18.79L118.75-18.79L118.75-18.79Q116.72-17.66 114.41-16.93L114.41-16.93L114.41-16.93Q112.11-16.21 109.67-15.90L109.67-15.90L109.67-15.90Q107.23-15.59 104.92-15.59L104.92-15.59L104.92-15.59Q101.99-15.59 99.14-16.00L99.14-16.00L99.14-16.00Q96.29-16.41 93.52-17.30L93.52-17.30L93.52-17.30Q93.95-14.73 94.88-12.40L94.88-12.40L94.88-12.40Q95.82-10.08 97.38-8.34L97.38-8.34L97.38-8.34Q98.95-6.60 101.23-5.59L101.23-5.59L101.23-5.59Q103.52-4.57 106.64-4.57L106.64-4.57L106.64-4.57Q108.71-4.57 110.59-5.20L110.59-5.20L110.59-5.20Q112.46-5.82 114.02-6.95L114.02-6.95L114.02-6.95Q115.59-8.09 116.78-9.65L116.78-9.65L116.78-9.65Q117.97-11.21 118.71-13.13L118.71-13.13L124.41-11.02L124.41-11.02Q123.13-7.93 120.88-5.68L120.88-5.68L120.88-5.68Q118.63-3.44 115.80-1.97L115.80-1.97L115.80-1.97Q112.97-0.51 109.79 0.20L109.79 0.20L109.79 0.20Q106.60 0.90 103.48 0.90L103.48 0.90L103.48 0.90Q98.32 0.90 93.95-0.84L93.95-0.84L93.95-0.84Q89.57-2.58 86.41-5.70L86.41-5.70L86.41-5.70Q83.24-8.83 81.45-13.16L81.45-13.16L81.45-13.16Q79.65-17.50 79.65-22.66L79.65-22.66L79.65-22.66Q79.65-27.81 81.45-32.15L81.45-32.15L81.45-32.15Q83.24-36.48 86.41-39.61L86.41-39.61L86.41-39.61Q89.57-42.73 93.95-44.47L93.95-44.47L93.95-44.47Q98.32-46.21 103.48-46.21L103.48-46.21L103.48-46.21Q105.98-46.21 108.59-45.86L108.59-45.86L108.59-45.86Q111.21-45.51 113.67-44.75L113.67-44.75L113.67-44.75Q116.13-43.98 118.32-42.77L118.32-42.77L118.32-42.77Q120.51-41.56 122.13-39.79L122.13-39.79L122.13-39.79Q123.75-38.01 124.71-35.66L124.71-35.66L124.71-35.66Q125.66-33.32 125.66-30.31" fill="#ffffff" stroke="none" stroke-width="none" transform="translate(-583.1399426460266,25.024267354011535)" style="fill: rgb(255, 255, 255);"></path></g><g class="path" style="transform: matrix(1, 0, 0, 1, 0, 14.925); opacity: 0.05; transform-origin: -442.63px -7.92573px; animation: 1s linear 0.055s 1 normal forwards running float-btt-in-ba313382-c000-4509-a30b-853b8a9dab6b;"><path d="M147.11-52.19L147.11 0L133.91 0L133.91-65.90L138.98-65.90L147.11-52.19" fill="#ffffff" stroke="none" stroke-width="none" transform="translate(-583.1399426460266,25.024267354011535)" style="fill: rgb(255, 255, 255);"></path></g><g class="path" style="transform: matrix(1, 0, 0, 1, 0, 14.925); opacity: 0.05; transform-origin: -405.5px 2.36927px; animation: 1s linear 0.0825s 1 normal forwards running float-btt-in-ba313382-c000-4509-a30b-853b8a9dab6b;"><path d="M199.77-33.95L199.77-33.95L194.06-31.68L194.06-31.68Q192.70-35.98 189.49-38.28L189.49-38.28L189.49-38.28Q186.29-40.59 181.80-40.59L181.80-40.59L181.80-40.59Q179.38-40.59 177.48-39.82L177.48-39.82L177.48-39.82Q175.59-39.06 174.16-37.73L174.16-37.73L174.16-37.73Q172.73-36.41 171.74-34.65L171.74-34.65L171.74-34.65Q170.74-32.89 170.12-30.90L170.12-30.90L170.12-30.90Q169.49-28.91 169.22-26.78L169.22-26.78L169.22-26.78Q168.95-24.65 168.95-22.66L168.95-22.66L168.95-22.66Q168.95-20.51 169.18-18.32L169.18-18.32L169.18-18.32Q169.41-16.13 169.98-14.12L169.98-14.12L169.98-14.12Q170.55-12.11 171.48-10.37L171.48-10.37L171.48-10.37Q172.42-8.63 173.85-7.34L173.85-7.34L173.85-7.34Q175.27-6.05 177.25-5.31L177.25-5.31L177.25-5.31Q179.22-4.57 181.80-4.57L181.80-4.57L181.80-4.57Q183.87-4.57 185.74-5.20L185.74-5.20L185.74-5.20Q187.62-5.82 189.18-6.95L189.18-6.95L189.18-6.95Q190.74-8.09 191.95-9.65L191.95-9.65L191.95-9.65Q193.16-11.21 193.87-13.13L193.87-13.13L199.61-11.02L199.61-11.02Q198.32-7.93 196.19-5.68L196.19-5.68L196.19-5.68Q194.06-3.44 191.37-1.97L191.37-1.97L191.37-1.97Q188.67-0.51 185.59 0.20L185.59 0.20L185.59 0.20Q182.50 0.90 179.34 0.90L179.34 0.90L179.34 0.90Q174.22 0.90 169.84-0.84L169.84-0.84L169.84-0.84Q165.47-2.58 162.29-5.72L162.29-5.72L162.29-5.72Q159.10-8.87 157.30-13.18L157.30-13.18L157.30-13.18Q155.51-17.50 155.51-22.66L155.51-22.66L155.51-22.66Q155.51-27.85 157.29-32.19L157.29-32.19L157.29-32.19Q159.06-36.52 162.23-39.65L162.23-39.65L162.23-39.65Q165.39-42.77 169.77-44.49L169.77-44.49L169.77-44.49Q174.14-46.21 179.34-46.21L179.34-46.21L179.34-46.21Q182.62-46.21 185.74-45.49L185.74-45.49L185.74-45.49Q188.87-44.77 191.54-43.26L191.54-43.26L191.54-43.26Q194.22-41.76 196.35-39.45L196.35-39.45L196.35-39.45Q198.48-37.15 199.77-33.95" fill="#ffffff" stroke="none" stroke-width="none" transform="translate(-583.1399426460266,25.024267354011535)" style="fill: rgb(255, 255, 255);"></path></g><g class="path" style="transform: matrix(1, 0, 0, 1, 0, 14.925); opacity: 0.05; transform-origin: -353.085px 2.36927px; animation: 1s linear 0.11s 1 normal forwards running float-btt-in-ba313382-c000-4509-a30b-853b8a9dab6b;"><path d="M255.23-22.66L255.23-22.66L255.23-22.66Q255.23-19.14 254.30-16.05L254.30-16.05L254.30-16.05Q253.36-12.97 251.70-10.35L251.70-10.35L251.70-10.35Q250.04-7.73 247.70-5.64L247.70-5.64L247.70-5.64Q245.35-3.55 242.56-2.11L242.56-2.11L242.56-2.11Q239.77-0.66 236.58 0.12L236.58 0.12L236.58 0.12Q233.40 0.90 230.04 0.90L230.04 0.90L230.04 0.90Q226.68 0.90 223.52 0.12L223.52 0.12L223.52 0.12Q220.35-0.66 217.56-2.11L217.56-2.11L217.56-2.11Q214.77-3.55 212.42-5.64L212.42-5.64L212.42-5.64Q210.08-7.73 208.42-10.35L208.42-10.35L208.42-10.35Q206.76-12.97 205.82-16.07L205.82-16.07L205.82-16.07Q204.88-19.18 204.88-22.66L204.88-22.66L204.88-22.66Q204.88-26.13 205.82-29.24L205.82-29.24L205.82-29.24Q206.76-32.34 208.42-34.96L208.42-34.96L208.42-34.96Q210.08-37.58 212.42-39.67L212.42-39.67L212.42-39.67Q214.77-41.76 217.56-43.20L217.56-43.20L217.56-43.20Q220.35-44.65 223.52-45.43L223.52-45.43L223.52-45.43Q226.68-46.21 230.04-46.21L230.04-46.21L230.04-46.21Q233.40-46.21 236.58-45.43L236.58-45.43L236.58-45.43Q239.77-44.65 242.56-43.20L242.56-43.20L242.56-43.20Q245.35-41.76 247.70-39.67L247.70-39.67L247.70-39.67Q250.04-37.58 251.70-34.96L251.70-34.96L251.70-34.96Q253.36-32.34 254.30-29.24L254.30-29.24L254.30-29.24Q255.23-26.13 255.23-22.66zM241.80-22.66L241.80-22.66L241.80-22.66Q241.80-24.53 241.58-26.62L241.58-26.62L241.58-26.62Q241.37-28.71 240.86-30.72L240.86-30.72L240.86-30.72Q240.35-32.73 239.47-34.59L239.47-34.59L239.47-34.59Q238.59-36.45 237.30-37.83L237.30-37.83L237.30-37.83Q236.02-39.22 234.22-40.06L234.22-40.06L234.22-40.06Q232.42-40.90 230.04-40.90L230.04-40.90L230.04-40.90Q227.77-40.90 226.02-40.04L226.02-40.04L226.02-40.04Q224.26-39.18 222.95-37.75L222.95-37.75L222.95-37.75Q221.64-36.33 220.76-34.45L220.76-34.45L220.76-34.45Q219.88-32.58 219.34-30.57L219.34-30.57L219.34-30.57Q218.79-28.55 218.55-26.50L218.55-26.50L218.55-26.50Q218.32-24.45 218.32-22.66L218.32-22.66L218.32-22.66Q218.32-20.86 218.55-18.81L218.55-18.81L218.55-18.81Q218.79-16.76 219.34-14.73L219.34-14.73L219.34-14.73Q219.88-12.70 220.76-10.84L220.76-10.84L220.76-10.84Q221.64-8.98 222.95-7.56L222.95-7.56L222.95-7.56Q224.26-6.13 226.02-5.27L226.02-5.27L226.02-5.27Q227.77-4.41 230.04-4.41L230.04-4.41L230.04-4.41Q232.38-4.41 234.18-5.25L234.18-5.25L234.18-5.25Q235.98-6.09 237.29-7.50L237.29-7.50L237.29-7.50Q238.59-8.91 239.45-10.74L239.45-10.74L239.45-10.74Q240.31-12.58 240.84-14.61L240.84-14.61L240.84-14.61Q241.37-16.64 241.58-18.71L241.58-18.71L241.58-18.71Q241.80-20.78 241.80-22.66" fill="#ffffff" stroke="none" stroke-width="none" transform="translate(-583.1399426460266,25.024267354011535)" style="fill: rgb(255, 255, 255);"></path></g><g class="path" style="transform: matrix(1, 0, 0, 1, 0, 14.925); opacity: 0.05; transform-origin: -284.685px 6.72427px; animation: 1s linear 0.1375s 1 normal forwards running float-btt-in-ba313382-c000-4509-a30b-853b8a9dab6b;"><path d="M333.36-26.33L333.36-26.33L333.36-26.33Q333.36-21.68 332.27-16.64L332.27-16.64L332.27-16.64Q331.17-11.60 329.20-6.82L329.20-6.82L329.20-6.82Q327.23-2.03 324.45 2.23L324.45 2.23L324.45 2.23Q321.68 6.48 318.28 9.61L318.28 9.61L313.32 6.91L313.32 6.91Q314.45 4.88 315.39 2.34L315.39 2.34L315.39 2.34Q316.33-0.20 317.11-3.01L317.11-3.01L317.11-3.01Q317.89-5.82 318.48-8.79L318.48-8.79L318.48-8.79Q319.06-11.76 319.47-14.71L319.47-14.71L319.47-14.71Q319.88-17.66 320.08-20.43L320.08-20.43L320.08-20.43Q320.27-23.20 320.27-25.63L320.27-25.63L320.27-25.63Q320.27-26.99 320.20-28.59L320.20-28.59L320.20-28.59Q320.12-30.20 319.86-31.80L319.86-31.80L319.86-31.80Q319.61-33.40 319.10-34.86L319.10-34.86L319.10-34.86Q318.59-36.33 317.71-37.48L317.71-37.48L317.71-37.48Q316.84-38.63 315.53-39.32L315.53-39.32L315.53-39.32Q314.22-40 312.38-40L312.38-40L312.38-40Q310.59-40 309.32-39.04L309.32-39.04L309.32-39.04Q308.05-38.09 307.15-36.56L307.15-36.56L307.15-36.56Q306.25-35.04 305.72-33.13L305.72-33.13L305.72-33.13Q305.20-31.21 304.92-29.28L304.92-29.28L304.92-29.28Q304.65-27.34 304.55-25.59L304.55-25.59L304.55-25.59Q304.45-23.83 304.45-22.62L304.45-22.62L304.45 0L291.29 0L291.29-21.02L291.29-21.02Q291.29-22.38 291.33-24.32L291.33-24.32L291.33-24.32Q291.37-26.25 291.23-28.36L291.23-28.36L291.23-28.36Q291.09-30.47 290.72-32.56L290.72-32.56L290.72-32.56Q290.35-34.65 289.55-36.29L289.55-36.29L289.55-36.29Q288.75-37.93 287.38-38.96L287.38-38.96L287.38-38.96Q286.02-40 283.95-40L283.95-40L283.95-40Q282.19-40 281.00-39.02L281.00-39.02L281.00-39.02Q279.80-38.05 279.00-36.50L279.00-36.50L279.00-36.50Q278.20-34.96 277.75-33.03L277.75-33.03L277.75-33.03Q277.30-31.09 277.09-29.16L277.09-29.16L277.09-29.16Q276.88-27.23 276.84-25.49L276.84-25.49L276.84-25.49Q276.80-23.75 276.80-22.62L276.80-22.62L276.80 0L263.55 0L263.55-45.12L268.63-45.12L273.48-34.61L273.48-34.61Q275.12-40.08 278.65-43.14L278.65-43.14L278.65-43.14Q282.19-46.21 288.05-46.21L288.05-46.21L288.05-46.21Q293.32-46.21 296.80-44.02L296.80-44.02L296.80-44.02Q300.27-41.84 302.27-36.91L302.27-36.91L302.27-36.91Q303.40-39.06 304.79-40.78L304.79-40.78L304.79-40.78Q306.17-42.50 307.87-43.71L307.87-43.71L307.87-43.71Q309.57-44.92 311.64-45.57L311.64-45.57L311.64-45.57Q313.71-46.21 316.21-46.21L316.21-46.21L316.21-46.21Q320.82-46.21 324.08-44.71L324.08-44.71L324.08-44.71Q327.34-43.20 329.41-40.55L329.41-40.55L329.41-40.55Q331.48-37.89 332.42-34.24L332.42-34.24L332.42-34.24Q333.36-30.59 333.36-26.33" fill="#ffffff" stroke="none" stroke-width="none" transform="translate(-583.1399426460266,25.024267354011535)" style="fill: rgb(255, 255, 255);"></path></g><g class="path" style="transform: matrix(1, 0, 0, 1, 0, 14.925); opacity: 0.05; transform-origin: -220.6px 2.36927px; animation: 1s linear 0.165s 1 normal forwards running float-btt-in-ba313382-c000-4509-a30b-853b8a9dab6b;"><path d="M353.01-21.41L353.01-21.41L353.01-21.41Q355.43-20.86 357.85-20.55L357.85-20.55L357.85-20.55Q360.27-20.23 362.73-20.23L362.73-20.23L362.73-20.23Q365.31-20.23 367.52-20.72L367.52-20.72L367.52-20.72Q369.73-21.21 371.35-22.36L371.35-22.36L371.35-22.36Q372.97-23.52 373.91-25.43L373.91-25.43L373.91-25.43Q374.84-27.34 374.84-30.20L374.84-30.20L374.84-30.20Q374.84-32.50 374.22-34.41L374.22-34.41L374.22-34.41Q373.59-36.33 372.36-37.70L372.36-37.70L372.36-37.70Q371.13-39.06 369.34-39.82L369.34-39.82L369.34-39.82Q367.54-40.59 365.16-40.59L365.16-40.59L365.16-40.59Q362.93-40.59 361.15-39.77L361.15-39.77L361.15-39.77Q359.38-38.95 358.03-37.56L358.03-37.56L358.03-37.56Q356.68-36.17 355.72-34.34L355.72-34.34L355.72-34.34Q354.77-32.50 354.14-30.51L354.14-30.51L354.14-30.51Q353.52-28.52 353.24-26.48L353.24-26.48L353.24-26.48Q352.97-24.45 352.97-22.66L352.97-22.66L352.97-22.66Q352.97-22.34 352.97-22.03L352.97-22.03L352.97-22.03Q352.97-21.72 353.01-21.41zM385.55-30.31L385.55-30.31L385.55-30.31Q385.55-27.54 384.65-25.37L384.65-25.37L384.65-25.37Q383.75-23.20 382.21-21.56L382.21-21.56L382.21-21.56Q380.66-19.92 378.63-18.79L378.63-18.79L378.63-18.79Q376.60-17.66 374.30-16.93L374.30-16.93L374.30-16.93Q371.99-16.21 369.55-15.90L369.55-15.90L369.55-15.90Q367.11-15.59 364.80-15.59L364.80-15.59L364.80-15.59Q361.88-15.59 359.02-16.00L359.02-16.00L359.02-16.00Q356.17-16.41 353.40-17.30L353.40-17.30L353.40-17.30Q353.83-14.73 354.77-12.40L354.77-12.40L354.77-12.40Q355.70-10.08 357.27-8.34L357.27-8.34L357.27-8.34Q358.83-6.60 361.11-5.59L361.11-5.59L361.11-5.59Q363.40-4.57 366.52-4.57L366.52-4.57L366.52-4.57Q368.59-4.57 370.47-5.20L370.47-5.20L370.47-5.20Q372.34-5.82 373.91-6.95L373.91-6.95L373.91-6.95Q375.47-8.09 376.66-9.65L376.66-9.65L376.66-9.65Q377.85-11.21 378.59-13.13L378.59-13.13L384.30-11.02L384.30-11.02Q383.01-7.93 380.76-5.68L380.76-5.68L380.76-5.68Q378.52-3.44 375.68-1.97L375.68-1.97L375.68-1.97Q372.85-0.51 369.67 0.20L369.67 0.20L369.67 0.20Q366.48 0.90 363.36 0.90L363.36 0.90L363.36 0.90Q358.20 0.90 353.83-0.84L353.83-0.84L353.83-0.84Q349.45-2.58 346.29-5.70L346.29-5.70L346.29-5.70Q343.13-8.83 341.33-13.16L341.33-13.16L341.33-13.16Q339.53-17.50 339.53-22.66L339.53-22.66L339.53-22.66Q339.53-27.81 341.33-32.15L341.33-32.15L341.33-32.15Q343.13-36.48 346.29-39.61L346.29-39.61L346.29-39.61Q349.45-42.73 353.83-44.47L353.83-44.47L353.83-44.47Q358.20-46.21 363.36-46.21L363.36-46.21L363.36-46.21Q365.86-46.21 368.48-45.86L368.48-45.86L368.48-45.86Q371.09-45.51 373.55-44.75L373.55-44.75L373.55-44.75Q376.02-43.98 378.20-42.77L378.20-42.77L378.20-42.77Q380.39-41.56 382.01-39.79L382.01-39.79L382.01-39.79Q383.63-38.01 384.59-35.66L384.59-35.66L384.59-35.66Q385.55-33.32 385.55-30.31" fill="#ffffff" stroke="none" stroke-width="none" transform="translate(-583.1399426460266,25.024267354011535)" style="fill: rgb(255, 255, 255);"></path></g><g class="path" style="transform: matrix(1, 0, 0, 1, 0, 14.925); opacity: 0.05; transform-origin: -153.59px -5.83573px; animation: 1s linear 0.1925s 1 normal forwards running float-btt-in-ba313382-c000-4509-a30b-853b8a9dab6b;"><path d="M433.44-39.88L433.44 0L420.20 0L420.20-39.88L411.99-39.88L411.99-45.12L420.20-45.12L420.20-61.72L433.44-61.72L433.44-45.12L447.11-45.12L447.11-39.88L433.44-39.88" fill="#ffffff" stroke="none" stroke-width="none" transform="translate(-583.1399426460266,25.024267354011535)" style="fill: rgb(255, 255, 255);"></path></g><g class="path" style="transform: matrix(1, 0, 0, 1, 0, 14.925); opacity: 0.05; transform-origin: -109.41px 2.36927px; animation: 1s linear 0.22s 1 normal forwards running float-btt-in-ba313382-c000-4509-a30b-853b8a9dab6b;"><path d="M498.91-22.66L498.91-22.66L498.91-22.66Q498.91-19.14 497.97-16.05L497.97-16.05L497.97-16.05Q497.03-12.97 495.37-10.35L495.37-10.35L495.37-10.35Q493.71-7.73 491.37-5.64L491.37-5.64L491.37-5.64Q489.02-3.55 486.23-2.11L486.23-2.11L486.23-2.11Q483.44-0.66 480.25 0.12L480.25 0.12L480.25 0.12Q477.07 0.90 473.71 0.90L473.71 0.90L473.71 0.90Q470.35 0.90 467.19 0.12L467.19 0.12L467.19 0.12Q464.02-0.66 461.23-2.11L461.23-2.11L461.23-2.11Q458.44-3.55 456.09-5.64L456.09-5.64L456.09-5.64Q453.75-7.73 452.09-10.35L452.09-10.35L452.09-10.35Q450.43-12.97 449.49-16.07L449.49-16.07L449.49-16.07Q448.55-19.18 448.55-22.66L448.55-22.66L448.55-22.66Q448.55-26.13 449.49-29.24L449.49-29.24L449.49-29.24Q450.43-32.34 452.09-34.96L452.09-34.96L452.09-34.96Q453.75-37.58 456.09-39.67L456.09-39.67L456.09-39.67Q458.44-41.76 461.23-43.20L461.23-43.20L461.23-43.20Q464.02-44.65 467.19-45.43L467.19-45.43L467.19-45.43Q470.35-46.21 473.71-46.21L473.71-46.21L473.71-46.21Q477.07-46.21 480.25-45.43L480.25-45.43L480.25-45.43Q483.44-44.65 486.23-43.20L486.23-43.20L486.23-43.20Q489.02-41.76 491.37-39.67L491.37-39.67L491.37-39.67Q493.71-37.58 495.37-34.96L495.37-34.96L495.37-34.96Q497.03-32.34 497.97-29.24L497.97-29.24L497.97-29.24Q498.91-26.13 498.91-22.66zM485.47-22.66L485.47-22.66L485.47-22.66Q485.47-24.53 485.25-26.62L485.25-26.62L485.25-26.62Q485.04-28.71 484.53-30.72L484.53-30.72L484.53-30.72Q484.02-32.73 483.14-34.59L483.14-34.59L483.14-34.59Q482.27-36.45 480.98-37.83L480.98-37.83L480.98-37.83Q479.69-39.22 477.89-40.06L477.89-40.06L477.89-40.06Q476.09-40.90 473.71-40.90L473.71-40.90L473.71-40.90Q471.45-40.90 469.69-40.04L469.69-40.04L469.69-40.04Q467.93-39.18 466.62-37.75L466.62-37.75L466.62-37.75Q465.31-36.33 464.43-34.45L464.43-34.45L464.43-34.45Q463.55-32.58 463.01-30.57L463.01-30.57L463.01-30.57Q462.46-28.55 462.23-26.50L462.23-26.50L462.23-26.50Q461.99-24.45 461.99-22.66L461.99-22.66L461.99-22.66Q461.99-20.86 462.23-18.81L462.23-18.81L462.23-18.81Q462.46-16.76 463.01-14.73L463.01-14.73L463.01-14.73Q463.55-12.70 464.43-10.84L464.43-10.84L464.43-10.84Q465.31-8.98 466.62-7.56L466.62-7.56L466.62-7.56Q467.93-6.13 469.69-5.27L469.69-5.27L469.69-5.27Q471.45-4.41 473.71-4.41L473.71-4.41L473.71-4.41Q476.05-4.41 477.85-5.25L477.85-5.25L477.85-5.25Q479.65-6.09 480.96-7.50L480.96-7.50L480.96-7.50Q482.27-8.91 483.13-10.74L483.13-10.74L483.13-10.74Q483.98-12.58 484.51-14.61L484.51-14.61L484.51-14.61Q485.04-16.64 485.25-18.71L485.25-18.71L485.25-18.71Q485.47-20.78 485.47-22.66" fill="#ffffff" stroke="none" stroke-width="none" transform="translate(-583.1399426460266,25.024267354011535)" style="fill: rgb(255, 255, 255);"></path></g><g class="path" style="transform: matrix(1, 0, 0, 1, 0, 14.925); opacity: 0.05; transform-origin: -44.645px -3.10073px; animation: 1s linear 0.2475s 1 normal forwards running float-btt-in-ba313382-c000-4509-a30b-853b8a9dab6b;"><path d="M546.25-56.25L546.25 0L530.74 0L530.74-56.25L546.25-56.25" fill="#ffffff" stroke="none" stroke-width="none" transform="translate(-583.1399426460266,25.024267354011535)" style="fill: rgb(255, 255, 255);"></path></g><g class="path" style="transform: matrix(1, 0, 0, 1, 0, 14.925); opacity: 0.05; transform-origin: -2.37494px 6.72427px; animation: 1s linear 0.275s 1 normal forwards running float-btt-in-ba313382-c000-4509-a30b-853b8a9dab6b;"><path d="M603.83-25.86L603.83-25.86L603.83-25.86Q603.83-21.29 602.71-16.33L602.71-16.33L602.71-16.33Q601.60-11.37 599.61-6.60L599.61-6.60L599.61-6.60Q597.62-1.84 594.84 2.36L594.84 2.36L594.84 2.36Q592.07 6.56 588.75 9.61L588.75 9.61L583.79 6.91L583.79 6.91Q584.84 4.96 585.78 2.54L585.78 2.54L585.78 2.54Q586.72 0.12 587.48-2.60L587.48-2.60L587.48-2.60Q588.24-5.31 588.85-8.20L588.85-8.20L588.85-8.20Q589.45-11.09 589.86-13.93L589.86-13.93L589.86-13.93Q590.27-16.76 590.49-19.43L590.49-19.43L590.49-19.43Q590.70-22.11 590.70-24.41L590.70-24.41L590.70-24.41Q590.70-25.94 590.59-27.68L590.59-27.68L590.59-27.68Q590.47-29.41 590.10-31.15L590.10-31.15L590.10-31.15Q589.73-32.89 589.10-34.49L589.10-34.49L589.10-34.49Q588.48-36.09 587.44-37.30L587.44-37.30L587.44-37.30Q586.41-38.52 584.94-39.26L584.94-39.26L584.94-39.26Q583.48-40 581.48-40L581.48-40L581.48-40Q579.53-40 578.01-39.12L578.01-39.12L578.01-39.12Q576.48-38.24 575.31-36.82L575.31-36.82L575.31-36.82Q574.14-35.39 573.30-33.55L573.30-33.55L573.30-33.55Q572.46-31.72 571.93-29.79L571.93-29.79L571.93-29.79Q571.41-27.85 571.17-25.98L571.17-25.98L571.17-25.98Q570.94-24.10 570.94-22.62L570.94-22.62L570.94 0L557.70 0L557.70-45.12L562.77-45.12L568.83-34.61L568.83-34.61Q569.92-37.23 571.56-39.38L571.56-39.38L571.56-39.38Q573.20-41.52 575.27-43.05L575.27-43.05L575.27-43.05Q577.34-44.57 579.86-45.39L579.86-45.39L579.86-45.39Q582.38-46.21 585.31-46.21L585.31-46.21L585.31-46.21Q590-46.21 593.48-44.69L593.48-44.69L593.48-44.69Q596.95-43.16 599.26-40.45L599.26-40.45L599.26-40.45Q601.56-37.73 602.70-34.00L602.70-34.00L602.70-34.00Q603.83-30.27 603.83-25.86" fill="#ffffff" stroke="none" stroke-width="none" transform="translate(-583.1399426460266,25.024267354011535)" style="fill: rgb(255, 255, 255);"></path></g><g class="path" style="transform: matrix(1, 0, 0, 1, 0, 14.925); opacity: 0.05; transform-origin: 52.465px 6.72427px; animation: 1s linear 0.3025s 1 normal forwards running float-btt-in-ba313382-c000-4509-a30b-853b8a9dab6b;"><path d="M658.67-25.86L658.67-25.86L658.67-25.86Q658.67-21.29 657.56-16.33L657.56-16.33L657.56-16.33Q656.45-11.37 654.45-6.60L654.45-6.60L654.45-6.60Q652.46-1.84 649.69 2.36L649.69 2.36L649.69 2.36Q646.91 6.56 643.59 9.61L643.59 9.61L638.63 6.91L638.63 6.91Q639.69 4.96 640.63 2.54L640.63 2.54L640.63 2.54Q641.56 0.12 642.32-2.60L642.32-2.60L642.32-2.60Q643.09-5.31 643.69-8.20L643.69-8.20L643.69-8.20Q644.30-11.09 644.71-13.93L644.71-13.93L644.71-13.93Q645.12-16.76 645.33-19.43L645.33-19.43L645.33-19.43Q645.55-22.11 645.55-24.41L645.55-24.41L645.55-24.41Q645.55-25.94 645.43-27.68L645.43-27.68L645.43-27.68Q645.31-29.41 644.94-31.15L644.94-31.15L644.94-31.15Q644.57-32.89 643.95-34.49L643.95-34.49L643.95-34.49Q643.32-36.09 642.29-37.30L642.29-37.30L642.29-37.30Q641.25-38.52 639.79-39.26L639.79-39.26L639.79-39.26Q638.32-40 636.33-40L636.33-40L636.33-40Q634.38-40 632.85-39.12L632.85-39.12L632.85-39.12Q631.33-38.24 630.16-36.82L630.16-36.82L630.16-36.82Q628.98-35.39 628.14-33.55L628.14-33.55L628.14-33.55Q627.30-31.72 626.78-29.79L626.78-29.79L626.78-29.79Q626.25-27.85 626.02-25.98L626.02-25.98L626.02-25.98Q625.78-24.10 625.78-22.62L625.78-22.62L625.78 0L612.54 0L612.54-45.12L617.62-45.12L623.67-34.61L623.67-34.61Q624.77-37.23 626.41-39.38L626.41-39.38L626.41-39.38Q628.05-41.52 630.12-43.05L630.12-43.05L630.12-43.05Q632.19-44.57 634.71-45.39L634.71-45.39L634.71-45.39Q637.23-46.21 640.16-46.21L640.16-46.21L640.16-46.21Q644.84-46.21 648.32-44.69L648.32-44.69L648.32-44.69Q651.80-43.16 654.10-40.45L654.10-40.45L654.10-40.45Q656.41-37.73 657.54-34.00L657.54-34.00L657.54-34.00Q658.67-30.27 658.67-25.86" fill="#ffffff" stroke="none" stroke-width="none" transform="translate(-583.1399426460266,25.024267354011535)" style="fill: rgb(255, 255, 255);"></path></g><g class="path" style="transform: matrix(1, 0, 0, 1, 0, 14.925); opacity: 0.05; transform-origin: 106.725px 2.36927px; animation: 1s linear 0.33s 1 normal forwards running float-btt-in-ba313382-c000-4509-a30b-853b8a9dab6b;"><path d="M715.04-22.66L715.04-22.66L715.04-22.66Q715.04-19.14 714.10-16.05L714.10-16.05L714.10-16.05Q713.16-12.97 711.50-10.35L711.50-10.35L711.50-10.35Q709.84-7.73 707.50-5.64L707.50-5.64L707.50-5.64Q705.16-3.55 702.36-2.11L702.36-2.11L702.36-2.11Q699.57-0.66 696.39 0.12L696.39 0.12L696.39 0.12Q693.20 0.90 689.84 0.90L689.84 0.90L689.84 0.90Q686.48 0.90 683.32 0.12L683.32 0.12L683.32 0.12Q680.16-0.66 677.36-2.11L677.36-2.11L677.36-2.11Q674.57-3.55 672.23-5.64L672.23-5.64L672.23-5.64Q669.88-7.73 668.22-10.35L668.22-10.35L668.22-10.35Q666.56-12.97 665.63-16.07L665.63-16.07L665.63-16.07Q664.69-19.18 664.69-22.66L664.69-22.66L664.69-22.66Q664.69-26.13 665.63-29.24L665.63-29.24L665.63-29.24Q666.56-32.34 668.22-34.96L668.22-34.96L668.22-34.96Q669.88-37.58 672.23-39.67L672.23-39.67L672.23-39.67Q674.57-41.76 677.36-43.20L677.36-43.20L677.36-43.20Q680.16-44.65 683.32-45.43L683.32-45.43L683.32-45.43Q686.48-46.21 689.84-46.21L689.84-46.21L689.84-46.21Q693.20-46.21 696.39-45.43L696.39-45.43L696.39-45.43Q699.57-44.65 702.36-43.20L702.36-43.20L702.36-43.20Q705.16-41.76 707.50-39.67L707.50-39.67L707.50-39.67Q709.84-37.58 711.50-34.96L711.50-34.96L711.50-34.96Q713.16-32.34 714.10-29.24L714.10-29.24L714.10-29.24Q715.04-26.13 715.04-22.66zM701.60-22.66L701.60-22.66L701.60-22.66Q701.60-24.53 701.39-26.62L701.39-26.62L701.39-26.62Q701.17-28.71 700.66-30.72L700.66-30.72L700.66-30.72Q700.16-32.73 699.28-34.59L699.28-34.59L699.28-34.59Q698.40-36.45 697.11-37.83L697.11-37.83L697.11-37.83Q695.82-39.22 694.02-40.06L694.02-40.06L694.02-40.06Q692.23-40.90 689.84-40.90L689.84-40.90L689.84-40.90Q687.58-40.90 685.82-40.04L685.82-40.04L685.82-40.04Q684.06-39.18 682.75-37.75L682.75-37.75L682.75-37.75Q681.45-36.33 680.57-34.45L680.57-34.45L680.57-34.45Q679.69-32.58 679.14-30.57L679.14-30.57L679.14-30.57Q678.59-28.55 678.36-26.50L678.36-26.50L678.36-26.50Q678.13-24.45 678.13-22.66L678.13-22.66L678.13-22.66Q678.13-20.86 678.36-18.81L678.36-18.81L678.36-18.81Q678.59-16.76 679.14-14.73L679.14-14.73L679.14-14.73Q679.69-12.70 680.57-10.84L680.57-10.84L680.57-10.84Q681.45-8.98 682.75-7.56L682.75-7.56L682.75-7.56Q684.06-6.13 685.82-5.27L685.82-5.27L685.82-5.27Q687.58-4.41 689.84-4.41L689.84-4.41L689.84-4.41Q692.19-4.41 693.98-5.25L693.98-5.25L693.98-5.25Q695.78-6.09 697.09-7.50L697.09-7.50L697.09-7.50Q698.40-8.91 699.26-10.74L699.26-10.74L699.26-10.74Q700.12-12.58 700.64-14.61L700.64-14.61L700.64-14.61Q701.17-16.64 701.39-18.71L701.39-18.71L701.39-18.71Q701.60-20.78 701.60-22.66" fill="#ffffff" stroke="none" stroke-width="none" transform="translate(-583.1399426460266,25.024267354011535)" style="fill: rgb(255, 255, 255);"></path></g><g class="path" style="transform: matrix(1, 0, 0, 1, 0, 14.925); opacity: 0.05; transform-origin: 157.27px 2.46427px; animation: 1s linear 0.3575s 1 normal forwards running float-btt-in-ba313382-c000-4509-a30b-853b8a9dab6b;"><path d="M763.44-45.12L745.66 0L733.79 0L717.38-45.12L730.59-45.12L742.62-9.18L754.30-45.12L763.44-45.12" fill="#ffffff" stroke="none" stroke-width="none" transform="translate(-583.1399426460266,25.024267354011535)" style="fill: rgb(255, 255, 255);"></path></g><g class="path" style="transform: matrix(1, 0, 0, 1, 0, 14.925); opacity: 0.05; transform-origin: 206.585px 2.36927px; animation: 1s linear 0.385s 1 normal forwards running float-btt-in-ba313382-c000-4509-a30b-853b8a9dab6b;"><path d="M813.71-45.12L813.71 0L800.51 0L800.51-5.39L800.51-5.39Q798.16-2.19 794.86-0.64L794.86-0.64L794.86-0.64Q791.56 0.90 787.62 0.90L787.62 0.90L787.62 0.90Q782.46 0.90 778.40-0.94L778.40-0.94L778.40-0.94Q774.34-2.77 771.52-5.96L771.52-5.96L771.52-5.96Q768.71-9.14 767.23-13.44L767.23-13.44L767.23-13.44Q765.74-17.73 765.74-22.66L765.74-22.66L765.74-22.66Q765.74-27.58 767.23-31.88L767.23-31.88L767.23-31.88Q768.71-36.17 771.52-39.36L771.52-39.36L771.52-39.36Q774.34-42.54 778.40-44.38L778.40-44.38L778.40-44.38Q782.46-46.21 787.62-46.21L787.62-46.21L787.62-46.21Q790.23-46.21 792.60-45.43L792.60-45.43L792.60-45.43Q794.96-44.65 796.93-43.22L796.93-43.22L796.93-43.22Q798.91-41.80 800.41-39.79L800.41-39.79L800.41-39.79Q801.91-37.77 802.77-35.31L802.77-35.31L808.63-45.12L813.71-45.12zM800.43-22.66L800.43-22.66L800.43-22.66Q800.43-24.41 800.25-26.37L800.25-26.37L800.25-26.37Q800.08-28.32 799.65-30.23L799.65-30.23L799.65-30.23Q799.22-32.15 798.46-33.89L798.46-33.89L798.46-33.89Q797.70-35.63 796.50-36.97L796.50-36.97L796.50-36.97Q795.31-38.32 793.63-39.10L793.63-39.10L793.63-39.10Q791.95-39.88 789.73-39.88L789.73-39.88L789.73-39.88Q787.50-39.88 785.86-39.08L785.86-39.08L785.86-39.08Q784.22-38.28 783.05-36.93L783.05-36.93L783.05-36.93Q781.88-35.59 781.11-33.83L781.11-33.83L781.11-33.83Q780.35-32.07 779.92-30.16L779.92-30.16L779.92-30.16Q779.49-28.24 779.32-26.31L779.32-26.31L779.32-26.31Q779.14-24.38 779.14-22.66L779.14-22.66L779.14-22.66Q779.14-20.94 779.32-18.98L779.32-18.98L779.32-18.98Q779.49-17.03 779.92-15.12L779.92-15.12L779.92-15.12Q780.35-13.20 781.11-11.45L781.11-11.45L781.11-11.45Q781.88-9.69 783.05-8.34L783.05-8.34L783.05-8.34Q784.22-6.99 785.86-6.19L785.86-6.19L785.86-6.19Q787.50-5.39 789.73-5.39L789.73-5.39L789.73-5.39Q791.76-5.39 793.34-6.23L793.34-6.23L793.34-6.23Q794.92-7.07 796.11-8.48L796.11-8.48L796.11-8.48Q797.30-9.88 798.13-11.68L798.13-11.68L798.13-11.68Q798.95-13.48 799.45-15.39L799.45-15.39L799.45-15.39Q799.96-17.30 800.20-19.20L800.20-19.20L800.20-19.20Q800.43-21.09 800.43-22.66" fill="#ffffff" stroke="none" stroke-width="none" transform="translate(-583.1399426460266,25.024267354011535)" style="fill: rgb(255, 255, 255);"></path></g><g class="path" style="transform: matrix(1, 0, 0, 1, 0, 14.925); opacity: 0.05; transform-origin: 254.69px -5.83573px; animation: 1s linear 0.4125s 1 normal forwards running float-btt-in-ba313382-c000-4509-a30b-853b8a9dab6b;"><path d="M841.72-39.88L841.72 0L828.48 0L828.48-39.88L820.27-39.88L820.27-45.12L828.48-45.12L828.48-61.72L841.72-61.72L841.72-45.12L855.39-45.12L855.39-39.88L841.72-39.88" fill="#ffffff" stroke="none" stroke-width="none" transform="translate(-583.1399426460266,25.024267354011535)" style="fill: rgb(255, 255, 255);"></path></g><g class="path" style="transform: matrix(1, 0, 0, 1, 0, 14.925); opacity: 0.05; transform-origin: 285.045px -30.9707px; animation: 1s linear 0.44s 1 normal forwards running float-btt-in-ba313382-c000-4509-a30b-853b8a9dab6b;"><path d="M875.39-56.02L875.39-56.02L875.39-56.02Q875.39-54.53 874.82-53.20L874.82-53.20L874.82-53.20Q874.26-51.88 873.28-50.90L873.28-50.90L873.28-50.90Q872.30-49.92 870.98-49.36L870.98-49.36L870.98-49.36Q869.65-48.79 868.16-48.79L868.16-48.79L868.16-48.79Q866.68-48.79 865.37-49.36L865.37-49.36L865.37-49.36Q864.06-49.92 863.09-50.90L863.09-50.90L863.09-50.90Q862.11-51.88 861.54-53.20L861.54-53.20L861.54-53.20Q860.98-54.53 860.98-56.02L860.98-56.02L860.98-56.02Q860.98-57.50 861.54-58.81L861.54-58.81L861.54-58.81Q862.11-60.12 863.09-61.09L863.09-61.09L863.09-61.09Q864.06-62.07 865.37-62.64L865.37-62.64L865.37-62.64Q866.68-63.20 868.16-63.20L868.16-63.20L868.16-63.20Q869.65-63.20 870.98-62.64L870.98-62.64L870.98-62.64Q872.30-62.07 873.28-61.09L873.28-61.09L873.28-61.09Q874.26-60.12 874.82-58.81L874.82-58.81L874.82-58.81Q875.39-57.50 875.39-56.02" fill="#ffffff" stroke="none" stroke-width="none" transform="translate(-583.1399426460266,25.024267354011535)" style="fill: rgb(255, 255, 255);"></path></g><g class="path" style="transform: matrix(1, 0, 0, 1, 0, 14.925); opacity: 0.05; transform-origin: 285.04px 2.48427px; animation: 1s linear 0.4675s 1 normal forwards running float-btt-in-ba313382-c000-4509-a30b-853b8a9dab6b;"><path d="M874.80-45.08L874.80 0L861.56 0L861.56-45.08L874.80-45.08" fill="#ffffff" stroke="none" stroke-width="none" transform="translate(-583.1399426460266,25.024267354011535)" style="fill: rgb(255, 255, 255);"></path></g><g class="path" style="transform: matrix(1, 0, 0, 1, 0, 14.925); opacity: 0.05; transform-origin: 325.2px 2.36927px; animation: 1s linear 0.495s 1 normal forwards running float-btt-in-ba313382-c000-4509-a30b-853b8a9dab6b;"><path d="M933.52-22.66L933.52-22.66L933.52-22.66Q933.52-19.14 932.58-16.05L932.58-16.05L932.58-16.05Q931.64-12.97 929.98-10.35L929.98-10.35L929.98-10.35Q928.32-7.73 925.98-5.64L925.98-5.64L925.98-5.64Q923.63-3.55 920.84-2.11L920.84-2.11L920.84-2.11Q918.05-0.66 914.86 0.12L914.86 0.12L914.86 0.12Q911.68 0.90 908.32 0.90L908.32 0.90L908.32 0.90Q904.96 0.90 901.80 0.12L901.80 0.12L901.80 0.12Q898.63-0.66 895.84-2.11L895.84-2.11L895.84-2.11Q893.05-3.55 890.70-5.64L890.70-5.64L890.70-5.64Q888.36-7.73 886.70-10.35L886.70-10.35L886.70-10.35Q885.04-12.97 884.10-16.07L884.10-16.07L884.10-16.07Q883.16-19.18 883.16-22.66L883.16-22.66L883.16-22.66Q883.16-26.13 884.10-29.24L884.10-29.24L884.10-29.24Q885.04-32.34 886.70-34.96L886.70-34.96L886.70-34.96Q888.36-37.58 890.70-39.67L890.70-39.67L890.70-39.67Q893.05-41.76 895.84-43.20L895.84-43.20L895.84-43.20Q898.63-44.65 901.80-45.43L901.80-45.43L901.80-45.43Q904.96-46.21 908.32-46.21L908.32-46.21L908.32-46.21Q911.68-46.21 914.86-45.43L914.86-45.43L914.86-45.43Q918.05-44.65 920.84-43.20L920.84-43.20L920.84-43.20Q923.63-41.76 925.98-39.67L925.98-39.67L925.98-39.67Q928.32-37.58 929.98-34.96L929.98-34.96L929.98-34.96Q931.64-32.34 932.58-29.24L932.58-29.24L932.58-29.24Q933.52-26.13 933.52-22.66zM920.08-22.66L920.08-22.66L920.08-22.66Q920.08-24.53 919.86-26.62L919.86-26.62L919.86-26.62Q919.65-28.71 919.14-30.72L919.14-30.72L919.14-30.72Q918.63-32.73 917.75-34.59L917.75-34.59L917.75-34.59Q916.88-36.45 915.59-37.83L915.59-37.83L915.59-37.83Q914.30-39.22 912.50-40.06L912.50-40.06L912.50-40.06Q910.70-40.90 908.32-40.90L908.32-40.90L908.32-40.90Q906.05-40.90 904.30-40.04L904.30-40.04L904.30-40.04Q902.54-39.18 901.23-37.75L901.23-37.75L901.23-37.75Q899.92-36.33 899.04-34.45L899.04-34.45L899.04-34.45Q898.16-32.58 897.62-30.57L897.62-30.57L897.62-30.57Q897.07-28.55 896.84-26.50L896.84-26.50L896.84-26.50Q896.60-24.45 896.60-22.66L896.60-22.66L896.60-22.66Q896.60-20.86 896.84-18.81L896.84-18.81L896.84-18.81Q897.07-16.76 897.62-14.73L897.62-14.73L897.62-14.73Q898.16-12.70 899.04-10.84L899.04-10.84L899.04-10.84Q899.92-8.98 901.23-7.56L901.23-7.56L901.23-7.56Q902.54-6.13 904.30-5.27L904.30-5.27L904.30-5.27Q906.05-4.41 908.32-4.41L908.32-4.41L908.32-4.41Q910.66-4.41 912.46-5.25L912.46-5.25L912.46-5.25Q914.26-6.09 915.57-7.50L915.57-7.50L915.57-7.50Q916.88-8.91 917.73-10.74L917.73-10.74L917.73-10.74Q918.59-12.58 919.12-14.61L919.12-14.61L919.12-14.61Q919.65-16.64 919.86-18.71L919.86-18.71L919.86-18.71Q920.08-20.78 920.08-22.66" fill="#ffffff" stroke="none" stroke-width="none" transform="translate(-583.1399426460266,25.024267354011535)" style="fill: rgb(255, 255, 255);"></path></g><g class="path" style="transform: matrix(1, 0, 0, 1, 0, 14.925); opacity: 0.05; transform-origin: 381.765px 6.72427px; animation: 1s linear 0.5225s 1 normal forwards running float-btt-in-ba313382-c000-4509-a30b-853b8a9dab6b;"><path d="M987.97-25.86L987.97-25.86L987.97-25.86Q987.97-21.29 986.86-16.33L986.86-16.33L986.86-16.33Q985.74-11.37 983.75-6.60L983.75-6.60L983.75-6.60Q981.76-1.84 978.98 2.36L978.98 2.36L978.98 2.36Q976.21 6.56 972.89 9.61L972.89 9.61L967.93 6.91L967.93 6.91Q968.98 4.96 969.92 2.54L969.92 2.54L969.92 2.54Q970.86 0.12 971.62-2.60L971.62-2.60L971.62-2.60Q972.38-5.31 972.99-8.20L972.99-8.20L972.99-8.20Q973.59-11.09 974.00-13.93L974.00-13.93L974.00-13.93Q974.41-16.76 974.63-19.43L974.63-19.43L974.63-19.43Q974.84-22.11 974.84-24.41L974.84-24.41L974.84-24.41Q974.84-25.94 974.73-27.68L974.73-27.68L974.73-27.68Q974.61-29.41 974.24-31.15L974.24-31.15L974.24-31.15Q973.87-32.89 973.24-34.49L973.24-34.49L973.24-34.49Q972.62-36.09 971.58-37.30L971.58-37.30L971.58-37.30Q970.55-38.52 969.08-39.26L969.08-39.26L969.08-39.26Q967.62-40 965.63-40L965.63-40L965.63-40Q963.67-40 962.15-39.12L962.15-39.12L962.15-39.12Q960.63-38.24 959.45-36.82L959.45-36.82L959.45-36.82Q958.28-35.39 957.44-33.55L957.44-33.55L957.44-33.55Q956.60-31.72 956.07-29.79L956.07-29.79L956.07-29.79Q955.55-27.85 955.31-25.98L955.31-25.98L955.31-25.98Q955.08-24.10 955.08-22.62L955.08-22.62L955.08 0L941.84 0L941.84-45.12L946.91-45.12L952.97-34.61L952.97-34.61Q954.06-37.23 955.70-39.38L955.70-39.38L955.70-39.38Q957.34-41.52 959.41-43.05L959.41-43.05L959.41-43.05Q961.48-44.57 964.00-45.39L964.00-45.39L964.00-45.39Q966.52-46.21 969.45-46.21L969.45-46.21L969.45-46.21Q974.14-46.21 977.62-44.69L977.62-44.69L977.62-44.69Q981.09-43.16 983.40-40.45L983.40-40.45L983.40-40.45Q985.70-37.73 986.84-34.00L986.84-34.00L986.84-34.00Q987.97-30.27 987.97-25.86" fill="#ffffff" stroke="none" stroke-width="none" transform="translate(-583.1399426460266,25.024267354011535)" style="fill: rgb(255, 255, 255);"></path></g><g class="path" style="transform: matrix(1, 0, 0, 1, 0, 14.925); opacity: 0.05; transform-origin: 461px -3.20073px; animation: 1s linear 0.55s 1 normal forwards running float-btt-in-ba313382-c000-4509-a30b-853b8a9dab6b;"><path d="M1071.29-42.30L1071.29-42.30L1064.61-39.49L1064.61-39.49Q1063.83-42.03 1062.52-44.14L1062.52-44.14L1062.52-44.14Q1061.21-46.25 1059.39-47.75L1059.39-47.75L1059.39-47.75Q1057.58-49.26 1055.27-50.10L1055.27-50.10L1055.27-50.10Q1052.97-50.94 1050.23-50.94L1050.23-50.94L1050.23-50.94Q1047.30-50.94 1044.86-49.98L1044.86-49.98L1044.86-49.98Q1042.42-49.02 1040.49-47.34L1040.49-47.34L1040.49-47.34Q1038.55-45.66 1037.11-43.44L1037.11-43.44L1037.11-43.44Q1035.66-41.21 1034.69-38.69L1034.69-38.69L1034.69-38.69Q1033.71-36.17 1033.24-33.48L1033.24-33.48L1033.24-33.48Q1032.77-30.78 1032.77-28.20L1032.77-28.20L1032.77-28.20Q1032.77-24.10 1033.73-20.04L1033.73-20.04L1033.73-20.04Q1034.69-15.98 1036.78-12.73L1036.78-12.73L1036.78-12.73Q1038.87-9.49 1042.19-7.48L1042.19-7.48L1042.19-7.48Q1045.51-5.47 1050.23-5.47L1050.23-5.47L1050.23-5.47Q1052.73-5.47 1054.96-6.31L1054.96-6.31L1054.96-6.31Q1057.19-7.15 1059.00-8.61L1059.00-8.61L1059.00-8.61Q1060.82-10.08 1062.19-12.07L1062.19-12.07L1062.19-12.07Q1063.55-14.06 1064.38-16.37L1064.38-16.37L1071.13-13.67L1071.13-13.67Q1069.65-9.96 1067.07-7.17L1067.07-7.17L1067.07-7.17Q1064.49-4.38 1061.19-2.54L1061.19-2.54L1061.19-2.54Q1057.89-0.70 1054.12 0.21L1054.12 0.21L1054.12 0.21Q1050.35 1.13 1046.52 1.13L1046.52 1.13L1046.52 1.13Q1042.38 1.13 1038.57 0.12L1038.57 0.12L1038.57 0.12Q1034.77-0.90 1031.48-2.77L1031.48-2.77L1031.48-2.77Q1028.20-4.65 1025.53-7.30L1025.53-7.30L1025.53-7.30Q1022.85-9.96 1020.96-13.20L1020.96-13.20L1020.96-13.20Q1019.06-16.45 1018.03-20.25L1018.03-20.25L1018.03-20.25Q1016.99-24.06 1016.99-28.20L1016.99-28.20L1016.99-28.20Q1016.99-32.34 1018.03-36.15L1018.03-36.15L1018.03-36.15Q1019.06-39.96 1020.96-43.22L1020.96-43.22L1020.96-43.22Q1022.85-46.48 1025.53-49.14L1025.53-49.14L1025.53-49.14Q1028.20-51.80 1031.48-53.67L1031.48-53.67L1031.48-53.67Q1034.77-55.55 1038.57-56.56L1038.57-56.56L1038.57-56.56Q1042.38-57.58 1046.52-57.58L1046.52-57.58L1046.52-57.58Q1050.51-57.58 1054.32-56.64L1054.32-56.64L1054.32-56.64Q1058.13-55.70 1061.41-53.81L1061.41-53.81L1061.41-53.81Q1064.69-51.91 1067.25-49.04L1067.25-49.04L1067.25-49.04Q1069.80-46.17 1071.29-42.30" fill="#ffffff" stroke="none" stroke-width="none" transform="translate(-583.1399426460266,25.024267354011535)" style="fill: rgb(255, 255, 255);"></path></g><g class="path" style="transform: matrix(1, 0, 0, 1, 0, 14.925); opacity: 0.05; transform-origin: 516.745px 2.36927px; animation: 1s linear 0.5775s 1 normal forwards running float-btt-in-ba313382-c000-4509-a30b-853b8a9dab6b;"><path d="M1090.35-21.41L1090.35-21.41L1090.35-21.41Q1092.77-20.86 1095.20-20.55L1095.20-20.55L1095.20-20.55Q1097.62-20.23 1100.08-20.23L1100.08-20.23L1100.08-20.23Q1102.66-20.23 1104.86-20.72L1104.86-20.72L1104.86-20.72Q1107.07-21.21 1108.69-22.36L1108.69-22.36L1108.69-22.36Q1110.31-23.52 1111.25-25.43L1111.25-25.43L1111.25-25.43Q1112.19-27.34 1112.19-30.20L1112.19-30.20L1112.19-30.20Q1112.19-32.50 1111.56-34.41L1111.56-34.41L1111.56-34.41Q1110.94-36.33 1109.71-37.70L1109.71-37.70L1109.71-37.70Q1108.48-39.06 1106.68-39.82L1106.68-39.82L1106.68-39.82Q1104.88-40.59 1102.50-40.59L1102.50-40.59L1102.50-40.59Q1100.27-40.59 1098.50-39.77L1098.50-39.77L1098.50-39.77Q1096.72-38.95 1095.37-37.56L1095.37-37.56L1095.37-37.56Q1094.02-36.17 1093.07-34.34L1093.07-34.34L1093.07-34.34Q1092.11-32.50 1091.48-30.51L1091.48-30.51L1091.48-30.51Q1090.86-28.52 1090.59-26.48L1090.59-26.48L1090.59-26.48Q1090.31-24.45 1090.31-22.66L1090.31-22.66L1090.31-22.66Q1090.31-22.34 1090.31-22.03L1090.31-22.03L1090.31-22.03Q1090.31-21.72 1090.35-21.41zM1122.89-30.31L1122.89-30.31L1122.89-30.31Q1122.89-27.54 1121.99-25.37L1121.99-25.37L1121.99-25.37Q1121.09-23.20 1119.55-21.56L1119.55-21.56L1119.55-21.56Q1118.01-19.92 1115.98-18.79L1115.98-18.79L1115.98-18.79Q1113.95-17.66 1111.64-16.93L1111.64-16.93L1111.64-16.93Q1109.34-16.21 1106.89-15.90L1106.89-15.90L1106.89-15.90Q1104.45-15.59 1102.15-15.59L1102.15-15.59L1102.15-15.59Q1099.22-15.59 1096.37-16.00L1096.37-16.00L1096.37-16.00Q1093.52-16.41 1090.74-17.30L1090.74-17.30L1090.74-17.30Q1091.17-14.73 1092.11-12.40L1092.11-12.40L1092.11-12.40Q1093.05-10.08 1094.61-8.34L1094.61-8.34L1094.61-8.34Q1096.17-6.60 1098.46-5.59L1098.46-5.59L1098.46-5.59Q1100.74-4.57 1103.87-4.57L1103.87-4.57L1103.87-4.57Q1105.94-4.57 1107.81-5.20L1107.81-5.20L1107.81-5.20Q1109.69-5.82 1111.25-6.95L1111.25-6.95L1111.25-6.95Q1112.81-8.09 1114.00-9.65L1114.00-9.65L1114.00-9.65Q1115.20-11.21 1115.94-13.13L1115.94-13.13L1121.64-11.02L1121.64-11.02Q1120.35-7.93 1118.11-5.68L1118.11-5.68L1118.11-5.68Q1115.86-3.44 1113.03-1.97L1113.03-1.97L1113.03-1.97Q1110.20-0.51 1107.01 0.20L1107.01 0.20L1107.01 0.20Q1103.83 0.90 1100.70 0.90L1100.70 0.90L1100.70 0.90Q1095.55 0.90 1091.17-0.84L1091.17-0.84L1091.17-0.84Q1086.80-2.58 1083.63-5.70L1083.63-5.70L1083.63-5.70Q1080.47-8.83 1078.67-13.16L1078.67-13.16L1078.67-13.16Q1076.88-17.50 1076.88-22.66L1076.88-22.66L1076.88-22.66Q1076.88-27.81 1078.67-32.15L1078.67-32.15L1078.67-32.15Q1080.47-36.48 1083.63-39.61L1083.63-39.61L1083.63-39.61Q1086.80-42.73 1091.17-44.47L1091.17-44.47L1091.17-44.47Q1095.55-46.21 1100.70-46.21L1100.70-46.21L1100.70-46.21Q1103.20-46.21 1105.82-45.86L1105.82-45.86L1105.82-45.86Q1108.44-45.51 1110.90-44.75L1110.90-44.75L1110.90-44.75Q1113.36-43.98 1115.55-42.77L1115.55-42.77L1115.55-42.77Q1117.73-41.56 1119.36-39.79L1119.36-39.79L1119.36-39.79Q1120.98-38.01 1121.93-35.66L1121.93-35.66L1121.93-35.66Q1122.89-33.32 1122.89-30.31" fill="#ffffff" stroke="none" stroke-width="none" transform="translate(-583.1399426460266,25.024267354011535)" style="fill: rgb(255, 255, 255);"></path></g><g class="path" style="transform: matrix(1, 0, 0, 1, 0, 14.925); opacity: 0.05; transform-origin: 554.595px -7.92573px; animation: 1s linear 0.605s 1 normal forwards running float-btt-in-ba313382-c000-4509-a30b-853b8a9dab6b;"><path d="M1144.34-52.19L1144.34 0L1131.13 0L1131.13-65.90L1136.21-65.90L1144.34-52.19" fill="#ffffff" stroke="none" stroke-width="none" transform="translate(-583.1399426460266,25.024267354011535)" style="fill: rgb(255, 255, 255);"></path></g><g class="path" style="transform: matrix(1, 0, 0, 1, 0, 14.925); opacity: 0.05; transform-origin: 578.81px -7.92573px; animation: 1s linear 0.6325s 1 normal forwards running float-btt-in-ba313382-c000-4509-a30b-853b8a9dab6b;"><path d="M1168.55-52.19L1168.55 0L1155.35 0L1155.35-65.90L1160.43-65.90L1168.55-52.19" fill="#ffffff" stroke="none" stroke-width="none" transform="translate(-583.1399426460266,25.024267354011535)" style="fill: rgb(255, 255, 255);"></path></g></g>
</g>
</g>
<style id="float-btt-in-ba313382-c000-4509-a30b-853b8a9dab6b" data-anikit="">@keyframes float-btt-in-ba313382-c000-4509-a30b-853b8a9dab6b
{
  0% {
    animation-timing-function: cubic-bezier(0.2242,0.7499,0.3142,0.8148);
    transform: translate(0px,14.925px) rotate(0deg) scale(1,1) skewX(0deg) skewY(0deg);
    opacity: 0.05;
  }
  100% {
    transform: translate(0px,0px) rotate(0deg) scale(1,1) skewX(0deg) skewY(0deg);
    opacity: 1;
  }
}</style></svg>